<?xml version="1.0" encoding="UTF-8"?>
<svg xmlns="http://www.w3.org/2000/svg" xmlns:xlink="http://www.w3.org/1999/xlink" width="25pt" height="25pt" viewBox="0 0 25 25" version="1.1">
<g id="surface1">
<path style=" stroke:none;fill-rule:nonzero;fill:rgb(0%,0%,0%);fill-opacity:1;" d="M 25 12.578125 C 25 5.671875 19.402344 0.078125 12.5 0.078125 C 5.597656 0.078125 0 5.671875 0 12.578125 C 0 18.816406 4.570312 23.984375 10.546875 24.921875 L 10.546875 16.1875 L 7.371094 16.1875 L 7.371094 12.578125 L 10.546875 12.578125 L 10.546875 9.824219 C 10.546875 6.6875 12.414062 4.957031 15.269531 4.957031 C 16.636719 4.957031 18.066406 5.203125 18.066406 5.203125 L 18.066406 8.277344 L 16.488281 8.277344 C 14.9375 8.277344 14.453125 9.242188 14.453125 10.230469 L 14.453125 12.578125 L 17.921875 12.578125 L 17.367188 16.1875 L 14.453125 16.1875 L 14.453125 24.921875 C 20.429688 23.984375 25 18.816406 25 12.578125 Z M 25 12.578125 "/>
</g>
</svg>
