<?xml version="1.0" encoding="UTF-8"?>
<svg xmlns="http://www.w3.org/2000/svg" xmlns:xlink="http://www.w3.org/1999/xlink" width="25pt" height="25pt" viewBox="0 0 25 25" version="1.1">
<g id="surface1">
<path style=" stroke:none;fill-rule:nonzero;fill:rgb(0%,0%,0%);fill-opacity:1;" d="M 12.5 0 C 9.105469 0 8.679688 0.015625 7.347656 0.0742188 C 6.015625 0.136719 5.109375 0.347656 4.3125 0.65625 C 3.488281 0.976562 2.792969 1.402344 2.097656 2.097656 C 1.402344 2.792969 0.972656 3.488281 0.65625 4.3125 C 0.347656 5.109375 0.136719 6.015625 0.0742188 7.347656 C 0.0117188 8.679688 0 9.105469 0 12.5 C 0 15.894531 0.015625 16.320312 0.0742188 17.652344 C 0.136719 18.984375 0.347656 19.890625 0.65625 20.6875 C 0.976562 21.507812 1.402344 22.207031 2.097656 22.902344 C 2.792969 23.597656 3.488281 24.027344 4.3125 24.34375 C 5.109375 24.652344 6.015625 24.863281 7.347656 24.925781 C 8.679688 24.988281 9.105469 25 12.5 25 C 15.894531 25 16.320312 24.984375 17.652344 24.925781 C 18.984375 24.863281 19.890625 24.652344 20.6875 24.34375 C 21.507812 24.023438 22.207031 23.597656 22.902344 22.902344 C 23.597656 22.207031 24.027344 21.511719 24.34375 20.6875 C 24.652344 19.890625 24.863281 18.984375 24.925781 17.652344 C 24.988281 16.320312 25 15.894531 25 12.5 C 25 9.105469 24.984375 8.679688 24.925781 7.347656 C 24.863281 6.015625 24.652344 5.109375 24.34375 4.3125 C 24.023438 3.492188 23.597656 2.792969 22.902344 2.097656 C 22.207031 1.402344 21.511719 0.972656 20.6875 0.65625 C 19.890625 0.347656 18.984375 0.136719 17.652344 0.0742188 C 16.320312 0.0117188 15.894531 0 12.5 0 Z M 12.5 2.25 C 15.835938 2.25 16.234375 2.265625 17.550781 2.324219 C 18.769531 2.382812 19.433594 2.582031 19.871094 2.757812 C 20.457031 2.984375 20.871094 3.253906 21.3125 3.691406 C 21.746094 4.128906 22.019531 4.542969 22.246094 5.128906 C 22.417969 5.566406 22.621094 6.230469 22.675781 7.449219 C 22.734375 8.765625 22.746094 9.164062 22.746094 12.5 C 22.746094 15.835938 22.734375 16.234375 22.671875 17.550781 C 22.609375 18.769531 22.402344 19.433594 22.234375 19.871094 C 22 20.457031 21.734375 20.871094 21.296875 21.3125 C 20.859375 21.746094 20.4375 22.019531 19.859375 22.246094 C 19.421875 22.417969 18.75 22.621094 17.53125 22.675781 C 16.203125 22.734375 15.8125 22.746094 12.46875 22.746094 C 9.125 22.746094 8.734375 22.734375 7.40625 22.671875 C 6.1875 22.609375 5.515625 22.402344 5.078125 22.234375 C 4.484375 22 4.078125 21.734375 3.640625 21.296875 C 3.203125 20.859375 2.921875 20.4375 2.703125 19.859375 C 2.53125 19.421875 2.328125 18.75 2.265625 17.53125 C 2.21875 16.21875 2.203125 15.8125 2.203125 12.484375 C 2.203125 9.15625 2.21875 8.75 2.265625 7.421875 C 2.328125 6.203125 2.53125 5.53125 2.703125 5.09375 C 2.921875 4.5 3.203125 4.09375 3.640625 3.65625 C 4.078125 3.21875 4.484375 2.9375 5.078125 2.71875 C 5.515625 2.546875 6.171875 2.34375 7.390625 2.28125 C 8.71875 2.234375 9.109375 2.21875 12.453125 2.21875 Z M 12.5 6.082031 C 8.953125 6.082031 6.082031 8.957031 6.082031 12.5 C 6.082031 16.046875 8.957031 18.917969 12.5 18.917969 C 16.046875 18.917969 18.917969 16.042969 18.917969 12.5 C 18.917969 8.953125 16.042969 6.082031 12.5 6.082031 Z M 12.5 16.667969 C 10.199219 16.667969 8.332031 14.800781 8.332031 12.5 C 8.332031 10.199219 10.199219 8.332031 12.5 8.332031 C 14.800781 8.332031 16.667969 10.199219 16.667969 12.5 C 16.667969 14.800781 14.800781 16.667969 12.5 16.667969 Z M 20.671875 5.828125 C 20.671875 6.65625 20 7.328125 19.171875 7.328125 C 18.34375 7.328125 17.671875 6.65625 17.671875 5.828125 C 17.671875 5 18.347656 4.328125 19.171875 4.328125 C 20 4.328125 20.671875 5 20.671875 5.828125 Z M 20.671875 5.828125 "/>
</g>
</svg>
