<?xml version="1.0" encoding="UTF-8"?>
<svg xmlns="http://www.w3.org/2000/svg" xmlns:xlink="http://www.w3.org/1999/xlink" width="25pt" height="25pt" viewBox="0 0 25 25" version="1.1">
<g id="surface1">
<path style=" stroke:none;fill-rule:nonzero;fill:rgb(0%,0%,0%);fill-opacity:1;" d="M 16.335938 0 L 8.664062 0 C 1.660156 0 0 1.660156 0 8.664062 L 0 16.335938 C 0 23.339844 1.660156 25 8.664062 25 L 16.335938 25 C 23.339844 25 25 23.339844 25 16.335938 L 25 8.664062 C 25 1.660156 23.324219 0 16.335938 0 Z M 20.183594 17.835938 L 18.367188 17.835938 C 17.679688 17.835938 17.464844 17.289062 16.230469 16.039062 C 15.15625 14.996094 14.679688 14.855469 14.414062 14.855469 C 14.042969 14.855469 13.9375 14.960938 13.9375 15.472656 L 13.9375 17.113281 C 13.9375 17.554688 13.796875 17.820312 12.632812 17.820312 C 10.707031 17.820312 8.574219 16.65625 7.074219 14.484375 C 4.816406 11.308594 4.199219 8.925781 4.199219 8.433594 C 4.199219 8.167969 4.304688 7.921875 4.816406 7.921875 L 6.632812 7.921875 C 7.089844 7.921875 7.265625 8.132812 7.445312 8.628906 C 8.34375 11.222656 9.84375 13.496094 10.460938 13.496094 C 10.691406 13.496094 10.796875 13.390625 10.796875 12.808594 L 10.796875 10.125 C 10.726562 8.890625 10.074219 8.785156 10.074219 8.34375 C 10.074219 8.132812 10.25 7.921875 10.53125 7.921875 L 13.390625 7.921875 C 13.777344 7.921875 13.917969 8.132812 13.917969 8.589844 L 13.917969 12.207031 C 13.917969 12.597656 14.097656 12.738281 14.203125 12.738281 C 14.429688 12.738281 14.625 12.597656 15.046875 12.171875 C 16.355469 10.707031 17.289062 8.449219 17.289062 8.449219 C 17.414062 8.183594 17.625 7.9375 18.082031 7.9375 L 19.898438 7.9375 C 20.449219 7.9375 20.570312 8.21875 20.449219 8.609375 C 20.21875 9.667969 17.996094 12.808594 17.996094 12.808594 C 17.800781 13.125 17.730469 13.265625 17.996094 13.621094 C 18.1875 13.882812 18.824219 14.429688 19.246094 14.925781 C 20.023438 15.808594 20.621094 16.546875 20.78125 17.058594 C 20.960938 17.570312 20.695312 17.835938 20.183594 17.835938 Z M 20.183594 17.835938 "/>
</g>
</svg>
